<?xml version="1.0" encoding="UTF-8"?>
<svg version="1.1" xmlns="http://www.w3.org/2000/svg" width="32" height="32">
<path d="M0 0 C0.69867187 -0.01160156 1.39734375 -0.02320312 2.1171875 -0.03515625 C6.59285638 -0.00982228 9.51602045 0.52560244 13 3.375 C16.31922555 7.43344172 16.45892389 11.32091666 16.375 16.375 C16.38660156 17.07367187 16.39820313 17.77234375 16.41015625 18.4921875 C16.38482228 22.96785638 15.84939756 25.89102045 13 29.375 C8.94155828 32.69422555 5.05408334 32.83392389 0 32.75 C-0.69867188 32.76160156 -1.39734375 32.77320313 -2.1171875 32.78515625 C-6.59285638 32.75982228 -9.51602045 32.22439756 -13 29.375 C-16.31922555 25.31655828 -16.45892389 21.42908334 -16.375 16.375 C-16.38660156 15.67632812 -16.39820312 14.97765625 -16.41015625 14.2578125 C-16.38482228 9.78214362 -15.84939756 6.85897955 -13 3.375 C-8.94155828 0.05577445 -5.05408334 -0.08392389 0 0 Z " fill="#FCB936" transform="translate(16,-0.375)"/>
<path d="M0 0 C4.0084034 2.0042017 5.41409657 3.49055963 8 7 C8 4.69 8 2.38 8 0 C8.99 0.33 9.98 0.66 11 1 C10.67 4.63 10.34 8.26 10 12 C9.34 12 8.68 12 8 12 C6.7109375 10.5390625 6.7109375 10.5390625 5.375 8.625 C4.70597656 7.68527344 4.70597656 7.68527344 4.0234375 6.7265625 C3 5 3 5 3 3 C2.34 3 1.68 3 1 3 C1.33 5.97 1.66 8.94 2 12 C1.01 11.67 0.02 11.34 -1 11 C-0.67 7.37 -0.34 3.74 0 0 Z " fill="#624815" transform="translate(11,10)"/>
<path d="M0 0 C0.66 0 1.32 0 2 0 C3.625 2.5 3.625 2.5 5 5 C4.34 5 3.68 5 3 5 C2.67 6.65 2.34 8.3 2 10 C0.68 9.67 -0.64 9.34 -2 9 C-1.34 8.67 -0.68 8.34 0 8 C0 5.36 0 2.72 0 0 Z " fill="#D19A2E" transform="translate(12,13)"/>
<path d="M0 0 C1.32 0.33 2.64 0.66 4 1 C3.01 1.495 3.01 1.495 2 2 C2 4.31 2 6.62 2 9 C0.68 7.68 -0.64 6.36 -2 5 C-1.34 5 -0.68 5 0 5 C0 3.35 0 1.7 0 0 Z " fill="#D49D2E" transform="translate(18,9)"/>
</svg>
